<svg width="9" height="5" viewBox="0 0 9 5" fill="none" xmlns="http://www.w3.org/2000/svg">
<path d="M8.7365 0.269018C8.65292 0.183732 8.55368 0.116077 8.44445 0.0699177C8.33522 0.0237584 8.21815 0 8.09991 0C7.98167 0 7.8646 0.0237584 7.75537 0.0699177C7.64614 0.116077 7.5469 0.183732 7.46332 0.269018L4.71178 3.07435C4.65552 3.1317 4.57923 3.16392 4.49968 3.16392C4.42014 3.16392 4.34385 3.1317 4.28759 3.07435L1.53664 0.269018C1.36789 0.0968467 1.13898 8.94631e-05 0.90027 3.20928e-05C0.66156 -2.52775e-05 0.432604 0.0966218 0.263771 0.268712C0.0949373 0.440802 5.62866e-05 0.674239 2.50352e-08 0.917669C-5.62365e-05 1.1611 0.094717 1.39458 0.263471 1.56675L3.01501 4.3727C3.21002 4.57158 3.44152 4.72934 3.69632 4.83697C3.95111 4.9446 4.2242 5 4.49998 5C4.77577 5 5.04886 4.9446 5.30365 4.83697C5.55844 4.72934 5.78995 4.57158 5.98495 4.3727L8.7365 1.56675C8.90522 1.39464 9 1.16125 9 0.917886C9 0.674524 8.90522 0.441126 8.7365 0.269018Z" fill="#4E4D4D"/>
</svg>
