<svg width="110" height="31" viewBox="0 0 110 31" fill="none" xmlns="http://www.w3.org/2000/svg">
<path d="M0.849616 15.3864C13.0692 23.5231 27.1817 29.5666 43.131 30.7116C54.7017 31.5392 66.3762 29.2653 76.9552 24.9732C84.5126 21.9159 91.4625 17.7361 97.671 12.9762C98.6319 12.2372 99.5907 11.4784 100.536 10.7012C99.4974 13.7712 98.4957 16.8473 97.6623 19.9357C96.8127 23.0955 102.557 24.2563 103.417 21.0755C105.048 15.0221 107.308 9.03235 109.268 3.03419C109.9 1.10344 107.817 -0.322484 105.661 0.0636184C98.1506 1.41125 90.6404 2.75889 83.1301 4.10652C79.3337 4.78469 80.817 9.58352 84.578 8.90909C88.7373 8.16287 92.8966 7.41666 97.0678 6.66921C95.6104 7.90904 94.0878 9.0959 92.5493 10.2446C89.1848 12.7615 86.9391 14.2238 83.0245 16.3898C78.9755 18.6398 74.2435 20.7521 70.1977 22.1245C60.8836 25.2767 51.1216 26.552 41.2854 25.5321C27.7684 24.1315 15.5334 18.6882 5.11191 11.7583C3.86611 10.9222 2.14456 10.7841 0.895985 11.8524C-0.178186 12.7629 -0.396185 14.5504 0.849616 15.3864Z" fill="#ED1F24"/>
</svg>
