<svg width="48" height="48" viewBox="0 0 48 48" fill="none" xmlns="http://www.w3.org/2000/svg">
<g clip-path="url(#clip0_30003_9404)">
<path d="M41.82 15.4261C40.716 7.47215 34.114 1.03815 26.12 0.122149C21.11 -0.453851 16.242 1.00415 12.418 4.22215C8.64399 7.39815 6.31599 12.0341 6.03199 16.9421C5.99999 17.4941 6.41999 17.9681 6.97199 17.9981C7.52399 18.0421 7.99599 17.6101 8.02799 17.0581C8.27999 12.6941 10.35 8.57415 13.706 5.75015C17.104 2.89215 21.432 1.59415 25.892 2.11015C32.992 2.92215 38.858 8.63815 39.84 15.7001C40.224 18.4741 39.902 21.2841 38.906 23.8261C37.93 26.3221 35.354 28.0001 32.496 28.0001H27.462C27.804 27.4121 28 26.7281 28 26.0001C28 23.7941 26.206 22.0001 24 22.0001C21.794 22.0001 20 23.7941 20 26.0001C20 28.2061 21.794 30.0001 24 30.0001H32.496C36.168 30.0001 39.494 27.8121 40.77 24.5561C41.89 21.6921 42.252 18.5361 41.82 15.4261ZM22 26.0001C22 24.8961 22.898 24.0001 24 24.0001C25.102 24.0001 26 24.8961 26 26.0001C26 27.1041 25.102 28.0001 24 28.0001C22.898 28.0001 22 27.1041 22 26.0001ZM32.91 22.5441C33.632 21.1301 34 19.6021 34 18.0001C34 12.4861 29.514 8.00015 24 8.00015C18.486 8.00015 14 12.4861 14 18.0001C14 20.3181 14.812 22.5781 16.286 24.3641C16.638 24.7901 16.578 25.4201 16.152 25.7721C15.966 25.9261 15.74 26.0001 15.516 26.0001C15.228 26.0001 14.942 25.8761 14.744 25.6361C12.976 23.4941 12 20.7821 12 18.0001C12 11.3821 17.382 6.00015 24 6.00015C30.618 6.00015 36 11.3821 36 18.0001C36 19.9221 35.56 21.7581 34.692 23.4561C34.438 23.9481 33.83 24.1401 33.346 23.8921C32.854 23.6401 32.658 23.0341 32.91 22.5441ZM39.978 46.7962C40.092 47.3382 39.744 47.8661 39.202 47.9781C38.672 48.1002 38.132 47.7461 38.02 47.2021C36.668 40.7101 30.772 35.9981 23.998 35.9981C17.224 35.9981 11.328 40.7081 9.97799 47.2021C9.87999 47.6741 9.46399 47.9981 8.99999 47.9981C8.93199 47.9981 8.86399 47.9921 8.79599 47.9762C8.25399 47.8642 7.90799 47.3361 8.01999 46.7941C9.56199 39.3781 16.282 33.9981 24 33.9981C31.718 33.9981 38.436 39.3781 39.978 46.7941V46.7962Z" fill="#ED1F24"/>
</g>
<defs>
<clipPath id="clip0_30003_9404">
<rect width="48" height="48" fill="white"/>
</clipPath>
</defs>
</svg>
