<svg width="16" height="16" viewBox="0 0 16 16" fill="none" xmlns="http://www.w3.org/2000/svg">
<path fill-rule="evenodd" clip-rule="evenodd" d="M5.40388 3.29877H6.05265L6.51232 2.8391L7.63017 1.72125C7.67869 1.6726 7.73633 1.63401 7.7998 1.60767C7.86326 1.58134 7.93129 1.56779 8 1.56779C8.06871 1.56779 8.13674 1.58134 8.2002 1.60767C8.26366 1.63401 8.32131 1.6726 8.36983 1.72125L9.48768 2.8391L9.94735 3.29877H12.1789C12.3174 3.29877 12.4503 3.35381 12.5482 3.45177C12.6462 3.54973 12.7012 3.68259 12.7012 3.82113V6.05265L13.1609 6.51232L14.2788 7.63017C14.3274 7.67869 14.366 7.73633 14.3923 7.7998C14.4187 7.86326 14.4322 7.93129 14.4322 8C14.4322 8.06871 14.4187 8.13674 14.3923 8.2002C14.366 8.26366 14.3274 8.32131 14.2788 8.36983L13.1609 9.48768L12.7012 9.94735V12.1789C12.7012 12.3174 12.6462 12.4503 12.5482 12.5482C12.4503 12.6462 12.3174 12.7012 12.1789 12.7012H9.94735L9.48768 13.1609L8.36983 14.2788C8.32131 14.3274 8.26366 14.366 8.2002 14.3923C8.13674 14.4187 8.06871 14.4322 8 14.4322C7.93129 14.4322 7.86326 14.4187 7.7998 14.3923C7.73633 14.366 7.67869 14.3274 7.63017 14.2788L6.51232 13.1609L6.05265 12.7012H3.82113C3.68259 12.7012 3.54973 12.6462 3.45177 12.5482C3.35381 12.4503 3.29877 12.3174 3.29877 12.1789V9.94735L2.8391 9.48768L1.72125 8.36983C1.6726 8.32131 1.63401 8.26366 1.60767 8.2002C1.58134 8.13674 1.56779 8.06871 1.56779 8C1.56779 7.93129 1.58134 7.86326 1.60767 7.7998C1.63401 7.73633 1.6726 7.67869 1.72125 7.63017L2.8391 6.51232L3.29877 6.05265V3.82113C3.29877 3.68259 3.35381 3.54973 3.45177 3.45177C3.54973 3.35381 3.68259 3.29877 3.82113 3.29877H5.40388ZM9.47827 0.612803C9.28422 0.418535 9.05378 0.264421 8.80013 0.159271C8.54648 0.0541219 8.27458 0 8 0C7.72542 0 7.45352 0.0541219 7.19987 0.159271C6.94622 0.264421 6.71578 0.418535 6.52172 0.612803L5.40492 1.7317H3.82113C3.26698 1.7317 2.73552 1.95183 2.34368 2.34368C1.95183 2.73552 1.7317 3.26698 1.7317 3.82113V5.40388L0.612803 6.52172C0.418535 6.71578 0.264421 6.94622 0.159271 7.19987C0.0541219 7.45352 0 7.72542 0 8C0 8.27458 0.0541219 8.54648 0.159271 8.80013C0.264421 9.05378 0.418535 9.28422 0.612803 9.47827L1.7317 10.5951V12.1789C1.7317 12.733 1.95183 13.2645 2.34368 13.6563C2.73552 14.0482 3.26698 14.2683 3.82113 14.2683H5.40388L6.52172 15.3872C6.71578 15.5815 6.94622 15.7356 7.19987 15.8407C7.45352 15.9459 7.72542 16 8 16C8.27458 16 8.54648 15.9459 8.80013 15.8407C9.05378 15.7356 9.28422 15.5815 9.47827 15.3872L10.5951 14.2683H12.1789C12.733 14.2683 13.2645 14.0482 13.6563 13.6563C14.0482 13.2645 14.2683 12.733 14.2683 12.1789V10.5961L15.3872 9.47827C15.5815 9.28422 15.7356 9.05378 15.8407 8.80013C15.9459 8.54648 16 8.27458 16 8C16 7.72542 15.9459 7.45352 15.8407 7.19987C15.7356 6.94622 15.5815 6.71578 15.3872 6.52172L14.2683 5.40492V3.82113C14.2683 3.26698 14.0482 2.73552 13.6563 2.34368C13.2645 1.95183 12.733 1.7317 12.1789 1.7317H10.5961L9.47827 0.612803ZM11.2386 6.38069C11.3004 6.29837 11.3453 6.2047 11.3708 6.10502C11.3964 6.00535 11.402 5.90162 11.3875 5.79976C11.3729 5.69789 11.3384 5.5999 11.286 5.51136C11.2336 5.42282 11.1642 5.34547 11.0819 5.28373C10.9996 5.222 10.9059 5.17708 10.8063 5.15154C10.7066 5.126 10.6028 5.12035 10.501 5.1349C10.3991 5.14945 10.3011 5.18393 10.2126 5.23635C10.124 5.28877 10.0467 5.35813 9.98496 5.44044L7.39302 8.89637L5.94191 7.4463C5.79337 7.30789 5.59692 7.23255 5.39393 7.23613C5.19094 7.23971 4.99726 7.32194 4.85371 7.4655C4.71015 7.60906 4.62792 7.80273 4.62433 8.00572C4.62075 8.20871 4.6961 8.40517 4.83451 8.5537L6.92394 10.6431C7.00329 10.7225 7.09876 10.7838 7.20389 10.8231C7.30901 10.8623 7.42134 10.8785 7.53327 10.8706C7.6452 10.8627 7.75413 10.8308 7.85267 10.7772C7.95122 10.7235 8.03709 10.6493 8.10447 10.5596L11.2386 6.38069Z" fill="white"/>
</svg>
