<svg width="48" height="48" viewBox="0 0 48 48" fill="none" xmlns="http://www.w3.org/2000/svg">
<path d="M35 0H13C8.038 0 4 4.038 4 9V39C4 43.962 8.038 48 13 48H35C39.962 48 44 43.962 44 39V9C44 4.038 39.962 0 35 0ZM13 2H35C38.86 2 42 5.14 42 9V10H6V9C6 5.14 9.14 2 13 2ZM35 46H13C9.14 46 6 42.86 6 39V12H42V39C42 42.86 38.86 46 35 46ZM36 21C36 21.552 35.552 22 35 22H13C12.448 22 12 21.552 12 21C12 20.448 12.448 20 13 20H35C35.552 20 36 20.448 36 21ZM28 29C28 29.552 27.552 30 27 30H13C12.448 30 12 29.552 12 29C12 28.448 12.448 28 13 28H27C27.552 28 28 28.448 28 29Z" fill="#ED1F24"/>
</svg>
