<svg width="84" height="49" viewBox="0 0 84 49" fill="none" xmlns="http://www.w3.org/2000/svg">
<path d="M81.7878 26.5979C78.7183 30.7909 73.3423 33.0099 68.3408 32.1524C67.1613 31.9494 66.0168 31.5784 64.9353 31.0639C65.1908 32.9294 65.5163 34.7774 66.1568 36.5274C67.1858 39.3309 69.2333 41.9279 72.0298 42.6139C72.9153 42.8309 75.9778 43.4749 75.0083 43.9054C72.6423 44.9589 74.4448 45.8864 73.5313 46.2364C71.3683 47.0659 65.8768 43.4749 63.4863 40.1009C61.0958 36.7269 59.7413 32.6879 58.4183 28.7154C58.2538 28.2219 57.5958 25.7544 57.0463 25.0859C56.5983 24.6029 56.2483 24.5959 56.0418 24.8479C55.9123 25.0019 55.9123 25.5619 56.1293 25.6494C56.5633 25.8279 55.1318 27.5884 53.1613 23.4094C53.1018 23.2869 52.9233 23.2449 52.7133 23.2449C52.6468 23.3569 52.5838 23.4654 52.5173 23.5774C52.4613 23.7944 52.3493 23.9974 52.1778 24.1304C52.1358 24.1619 52.0833 24.0954 52.1113 24.0569C52.1253 24.0359 52.1393 24.0149 52.1533 23.9904C52.1463 23.9799 52.1428 23.9694 52.1428 23.9554C52.1463 23.9134 52.1498 23.8434 52.1568 23.7769C52.0623 23.9274 51.9328 24.0709 51.8243 24.1759C51.7858 24.2144 51.7473 24.1549 51.7438 24.1199C51.7438 24.1059 51.7473 24.0604 51.7578 24.0009C51.6983 24.1164 51.6353 24.2249 51.6108 24.2704C51.4428 24.6134 51.2538 24.9424 50.9948 25.2154C50.9528 25.2574 50.9038 25.1804 50.9108 25.1419C50.9143 25.1209 50.9213 25.0999 50.9248 25.0789C50.6868 25.6004 50.4208 26.1044 50.1268 26.5979C50.0953 26.6469 50.0323 26.5839 50.0463 26.5419C50.1198 26.3109 50.2003 26.0869 50.2773 25.8594C50.3403 25.6844 50.3788 25.4849 50.4348 25.2959C50.1898 25.8629 49.9413 26.4194 49.5913 26.9269C49.5563 26.9759 49.5073 26.9234 49.5038 26.8814C49.4968 26.8149 49.4968 26.7519 49.5003 26.6854C49.3953 26.9199 49.2693 27.1509 49.1223 27.3644C49.0908 27.4064 49.0348 27.3644 49.0383 27.3224C49.0523 27.1054 49.0698 26.4894 49.2203 26.3739C48.9368 26.5839 48.8563 27.3084 48.7443 27.6339C48.7233 27.6969 48.6498 27.6514 48.6533 27.5989C48.6673 27.1719 48.7093 26.9759 48.4923 27.4974C48.3628 27.8089 48.2578 28.1239 48.1038 28.4214C48.0793 28.4704 48.0198 28.4144 48.0198 28.3794C48.0233 28.2814 48.0583 27.8159 47.9673 27.7669C47.9848 27.7774 47.8413 28.2289 47.8308 28.2604C47.7433 28.5579 47.6453 28.8484 47.5368 29.1389C47.5228 29.1809 47.4703 29.1494 47.4563 29.1249C47.3793 28.9394 47.3653 28.7889 47.3513 28.5929C47.3373 28.4669 47.3828 28.0784 47.2218 28.0574C47.2498 28.0609 47.7293 31.7849 47.7398 33.0834C47.7468 33.8044 47.6838 34.5114 47.6103 35.2254C47.5228 36.0759 47.6663 36.7969 47.8833 37.6124C48.0338 38.1584 48.1598 38.7044 48.1563 39.2784C48.1493 40.1359 47.9323 40.9759 48.0093 41.8299C48.1318 43.1949 48.8213 44.3709 49.4303 45.5539C49.7173 46.1104 50.3788 47.1219 49.7033 47.6574C49.3638 47.9199 48.8458 47.9549 48.4468 47.9724C47.7783 48.0074 44.5198 48.2139 43.6623 47.9059C42.6473 47.5419 42.7803 46.3799 43.2493 45.3019C42.8293 44.1784 42.5283 43.0619 42.6088 41.8019C42.6298 41.4344 42.6858 41.0704 42.7558 40.7099C42.6193 40.5034 42.5458 40.2059 42.4968 40.0169C42.3953 39.6109 42.3533 39.1874 42.2588 38.7814C42.0978 38.0919 41.8143 37.4409 41.5413 36.7969C41.1388 35.8379 40.8168 34.8614 40.5298 33.8639C40.4983 33.9619 40.4668 34.0634 40.4353 34.1614C40.4003 34.2664 40.2848 34.1754 40.3023 34.0914C40.3198 33.9934 40.3443 33.8954 40.3688 33.8009C40.3653 33.7869 40.3653 33.7764 40.3688 33.7659C40.3758 33.7484 40.3828 33.7274 40.3898 33.7099C40.4038 33.6539 40.4248 33.5979 40.4388 33.5419C40.4283 33.5069 40.4213 33.4754 40.4108 33.4404C40.3793 33.4964 40.3513 33.5489 40.3163 33.6014C40.2848 33.6469 40.2288 33.6329 40.1973 33.5944C40.1448 33.6609 40.0888 33.7204 40.0293 33.7729C40.0258 33.7729 40.0258 33.7729 40.0223 33.7764C39.9908 33.8639 39.9593 33.9479 39.9278 34.0319C39.8893 34.1684 39.8508 34.3049 39.8018 34.4379C39.7598 34.5499 39.6373 34.4554 39.6548 34.3644C39.6898 34.2139 39.7213 34.0739 39.7598 33.9234C39.7038 34.0109 39.6408 34.0914 39.5813 34.1719C39.2453 34.7284 39.2068 35.4739 38.8043 35.9779C37.6843 37.3884 37.6353 38.8864 37.1243 40.3669C36.6203 41.8229 36.1968 43.4749 36.5468 45.0149C36.7043 45.7114 37.7998 46.9049 37.1838 47.5069C36.1933 48.4799 33.6383 47.6959 32.8018 47.7764C31.8113 47.8709 30.6248 48.0669 29.6798 47.6119C28.7733 47.1744 29.9948 44.6789 30.6353 44.1854C30.6143 42.8309 30.5408 40.6084 30.5863 39.2679C30.6458 37.5564 31.6083 36.3034 30.9083 34.1474C30.8523 33.9724 30.9083 33.7729 30.9083 33.5839C30.8488 33.6959 30.7928 33.8079 30.7298 33.9164C30.7018 33.9654 30.6458 33.9304 30.6318 33.8849C30.5968 33.8814 30.5653 33.8324 30.5653 33.7974C30.5653 33.6819 30.5793 33.5734 30.6003 33.4684C30.5583 33.4649 30.5198 33.4614 30.4778 33.4579C30.3553 33.6574 30.2328 33.8534 30.0823 34.0354C30.0578 34.0634 30.0333 34.0564 30.0123 34.0354C29.9633 34.1054 29.9178 34.1789 29.8618 34.2454C29.8163 34.3084 29.7218 34.2524 29.7323 34.1789C29.7393 34.1194 29.7463 34.0774 29.7463 34.0389C29.6098 34.2104 29.4733 34.3819 29.3298 34.5499C29.2773 34.6129 29.2073 34.5149 29.2073 34.4624C29.2073 34.3889 29.2143 34.3154 29.2213 34.2489C29.1793 34.3049 29.1408 34.3609 29.1023 34.4169C29.0463 34.4974 28.9658 34.4134 28.9623 34.3434C28.9588 34.2699 28.9553 34.1999 28.9553 34.1369C28.8363 34.2244 28.7313 34.3259 28.6508 34.4519C28.5983 34.5184 28.4968 34.4589 28.5038 34.3784C28.5143 34.3049 28.5178 34.2279 28.5248 34.1544C28.4443 34.2489 28.3708 34.3469 28.2938 34.4449C28.2413 34.5149 28.1363 34.4519 28.1433 34.3679C28.1538 34.3014 28.1678 34.2384 28.1818 34.1719C28.0768 34.3819 27.9578 34.5814 27.7898 34.7564C27.7408 34.8054 27.6603 34.7424 27.6568 34.6899C27.6533 34.6549 27.6533 34.6234 27.6533 34.5954C27.6113 34.6584 27.5658 34.7179 27.5133 34.7704C27.4503 34.8369 27.3768 34.7389 27.3803 34.6724C27.3488 34.7179 27.3173 34.7634 27.2823 34.8019C27.2263 34.8649 27.1388 34.7704 27.1458 34.7074C27.1493 34.6654 27.1563 34.6234 27.1598 34.5849C27.1248 34.6409 27.0933 34.6934 27.0478 34.7459C26.9918 34.8124 26.9113 34.7074 26.9113 34.6514C26.9113 34.5569 26.9113 34.4589 26.9113 34.3609C26.7993 34.5254 26.6943 34.6969 26.5683 34.8509C26.5228 34.9104 26.4423 34.8334 26.4353 34.7844C26.4213 34.6794 26.4213 34.5744 26.4213 34.4729C26.3478 34.5989 26.2673 34.7249 26.1728 34.8439C26.1203 34.9104 26.0398 34.8649 26.0223 34.7914C26.0118 34.7389 26.0048 34.6934 25.9943 34.6409C25.9558 34.6829 25.9173 34.7214 25.8788 34.7634C25.8193 34.8299 25.7388 34.7284 25.7423 34.6689C25.7458 34.5919 25.7423 34.5114 25.7423 34.4344C25.5988 34.6129 25.5113 34.8404 25.3923 35.0364C25.3398 35.1239 25.2383 35.0364 25.2418 34.9559C25.2488 34.8404 25.2628 34.7284 25.2803 34.6164C25.1963 34.7844 25.1123 34.9524 24.9898 35.0959C24.9373 35.1554 24.8603 35.0784 24.8498 35.0259C24.8218 34.8894 24.8113 34.7634 24.8078 34.6304C24.7168 34.7354 24.6293 34.8439 24.5488 34.9594C24.4998 35.0259 24.4053 34.9804 24.3948 34.9034C24.3808 34.8019 24.3528 34.7039 24.3283 34.6024C24.2583 34.6304 24.1848 34.6549 24.1183 34.6829C24.0798 34.6969 24.0378 34.6794 24.0168 34.6444C23.7578 34.2244 23.1733 34.7564 22.8968 34.8579C22.8268 34.8859 22.7428 34.7914 22.7743 34.7179C22.7883 34.6864 22.7953 34.6584 22.8093 34.6304C22.7498 34.7004 22.6868 34.7774 22.6203 34.8439C22.5538 34.9139 22.4698 34.8054 22.4698 34.7389C22.4663 34.6969 22.4698 34.6514 22.4663 34.6094C22.3438 34.6584 22.2528 34.6654 22.1793 34.6374C21.9588 35.2009 21.5038 35.6769 21.4303 36.2684C21.1608 38.5434 20.2193 39.8734 19.9043 41.2909C19.7818 41.8439 20.2473 44.0384 21.2938 44.1854C22.7113 44.3849 23.7193 46.5339 22.2948 47.6014C21.8363 47.9444 20.8808 47.7064 20.3348 47.7624C19.6453 47.8289 18.3608 47.6679 17.6818 47.7939C16.4813 48.0179 15.0778 48.1264 14.7173 46.4744C14.5668 45.7884 14.8713 43.6079 14.9203 43.0269C15.1303 40.5279 13.7513 38.8689 13.5308 36.7864C13.5203 36.7024 13.4678 36.6254 13.4433 36.5449C11.8823 37.4689 10.1113 38.2494 9.37979 40.0274C9.00879 40.9374 7.01379 40.9479 6.84229 44.4514C7.82229 44.7874 9.09979 47.9724 5.91829 47.7764C5.45629 47.7484 4.64079 47.5839 4.17879 47.6014C3.12879 47.6364 2.40779 47.9059 1.39279 47.6259C0.983289 47.5139 0.346289 46.8489 0.0312886 46.4709C-0.129711 46.3274 0.332289 43.4714 1.37879 42.1029C1.63079 41.7774 2.90479 36.7094 3.06929 35.3479C3.21279 34.1649 3.97579 33.2409 4.32929 32.1279C4.70029 30.9624 4.59529 29.7199 4.72129 28.5159C4.63729 28.3794 4.56029 28.2394 4.50079 28.0889C4.24529 27.4484 4.31179 26.7309 4.39229 26.0449C4.41679 25.8279 4.44479 25.6144 4.47279 25.4009C4.49379 25.2364 4.53929 24.9109 4.53929 24.9144C4.51829 24.9424 4.52529 24.4874 4.71429 23.7944C4.95579 22.8914 5.22529 21.5124 5.45979 20.2664C5.45629 20.2524 5.45279 20.2384 5.44929 20.2244C5.23929 20.5009 5.10979 22.3384 4.17879 23.4549C4.25929 23.7174 4.32229 23.9869 4.32579 24.2599C4.32579 24.4804 4.28729 24.6869 4.14029 24.8514C3.96179 25.0439 3.74829 25.1384 3.63279 25.3939C3.43329 25.8244 3.41929 26.2934 3.27229 26.7379C3.20579 26.9549 3.09379 27.0529 2.91879 26.9899C2.90829 27.3644 3.06929 27.6864 3.23029 28.0154C3.26179 28.0784 3.12529 28.0224 3.10779 28.0014C2.93279 27.7774 2.51629 27.8159 2.65629 28.1554C2.68079 28.2184 2.53729 28.1624 2.51629 28.1134C2.50929 28.0959 2.50229 28.0749 2.49879 28.0574C1.81629 27.4519 1.67629 26.5454 1.83729 25.6564C1.99129 24.7954 2.39379 24.0674 2.76129 23.3044C2.77179 23.3044 2.77879 23.3079 2.78929 23.3079C2.79979 23.2764 2.80679 23.2449 2.81379 23.2134C3.00279 22.5729 3.23379 21.9219 3.53479 21.3269C3.77629 20.6164 4.04579 19.9094 4.33629 19.2199C4.68279 18.4044 5.10279 17.6449 5.56129 16.8924C5.91829 16.3079 6.27879 15.7164 6.71629 15.1949C6.97529 14.8869 8.41379 13.0424 8.49779 13.0179C8.55029 13.0004 11.2838 10.9354 12.8448 10.2354C18.6023 7.66636 24.7938 6.24186 30.6913 4.01236C30.6703 3.85136 33.7643 2.77687 33.8903 2.61237C33.8973 2.60537 33.9218 2.40236 33.9428 2.37086C33.9953 2.28686 34.1738 2.22036 34.2578 2.18886C34.5378 2.07686 35.4338 2.11187 35.3113 1.71287C35.2938 1.65337 35.2973 1.59737 35.3533 1.56237C35.3778 1.54836 35.9553 1.33487 35.9553 1.34537C35.9448 1.27537 35.9868 1.22286 36.0533 1.22286C36.2073 1.23336 36.4523 1.36636 36.5993 1.34186C36.8583 1.29636 36.6588 1.29286 36.8023 1.22286C36.9353 1.15636 37.0088 1.12836 37.1243 1.12836C37.1138 1.10036 37.1068 1.06886 37.0928 1.04086C37.0718 0.984864 37.0858 0.904365 37.1558 0.893865C37.4393 0.851865 37.7123 1.02337 37.9818 0.939365C38.1428 0.890365 38.1218 0.834365 38.3283 0.830865C38.3948 0.827365 38.4508 0.886865 38.5243 0.872865C38.5628 0.865865 38.5908 0.781865 38.6468 0.778365C38.8288 0.767865 39.1963 0.953366 39.3153 0.771366C39.3328 0.746866 39.3608 0.725865 39.3958 0.732865C39.4518 0.746865 39.9208 0.911365 39.9208 0.851865C39.9208 0.802865 39.9628 0.757365 40.0153 0.764364C40.6033 0.911364 41.1878 1.07587 41.7233 1.36987C41.7233 1.36287 41.7198 1.35936 41.7198 1.35587C41.7058 1.26837 41.7863 1.20886 41.8563 1.26486L42.1503 1.23337C42.1433 1.17037 42.1923 1.08987 42.2623 1.13537C42.3183 1.16687 42.3638 1.20186 42.4128 1.24037C42.5003 1.18437 42.5493 1.10387 42.5178 0.981365C42.5038 0.921865 42.5073 0.865865 42.5563 0.830865C42.5773 0.816865 43.0673 0.603365 43.0673 0.613865C43.0568 0.543865 43.0918 0.491366 43.1548 0.491366C43.2843 0.501866 43.4943 0.634866 43.6203 0.610366C43.8408 0.564866 43.6693 0.561366 43.7953 0.491366C43.9108 0.424866 43.9703 0.396864 44.0718 0.396864C44.0613 0.368864 44.0578 0.337366 44.0473 0.309366C44.0298 0.253366 44.0403 0.172865 44.0998 0.162365C44.3413 0.120365 44.5758 0.291865 44.7998 0.207865C44.9363 0.158865 44.9188 0.102866 45.0938 0.099366C45.1533 0.095866 45.1953 0.155365 45.2618 0.141365C45.2933 0.134365 45.3213 0.0503648 45.3633 0.0468648C45.5173 0.0363648 45.8288 0.221865 45.9338 0.0398653C45.9478 0.0153653 45.9758 -0.00563526 46.0003 0.00136474C46.0458 0.0153647 46.4483 0.179864 46.4483 0.120364C46.4483 0.0713645 46.4868 0.0258658 46.5288 0.0328658C47.0293 0.179866 47.5228 0.344365 47.9813 0.638365C47.9813 0.631365 47.9778 0.627865 47.9778 0.624365C47.9673 0.536865 48.0338 0.477365 48.0933 0.533365L48.3453 0.501865C48.3383 0.438865 48.3803 0.358366 48.4398 0.403866C48.7303 0.606866 48.9263 0.935866 49.1643 1.20537C49.0978 1.09337 49.0348 0.981365 48.9648 0.872865C48.9193 0.799365 48.9788 0.676866 49.0488 0.746866C49.2518 0.942866 49.4198 1.17387 49.6018 1.39437L49.6648 1.41187C49.6718 1.42587 49.6788 1.43986 49.6788 1.45386C49.7383 1.53436 49.8013 1.61136 49.8643 1.68486C49.8748 1.69536 49.8853 1.70587 49.8993 1.71987C49.9063 1.72687 49.9133 1.73387 49.9133 1.74437C50.2003 2.07337 50.4978 2.38486 50.5818 2.85736C51.2713 3.38936 52.2303 3.68687 52.9688 3.26337C53.0143 3.23537 53.0633 3.20737 53.1053 3.17236C53.2593 2.96937 53.4098 2.76287 53.5883 2.58787C53.8508 2.33587 54.1868 2.20986 54.5263 2.12236C54.8308 2.04536 55.1388 2.03136 55.4468 2.00686C55.7513 1.98236 56.0033 1.97536 56.2728 2.14686C56.3918 2.22036 56.4933 2.32186 56.6228 2.37086C56.8083 2.43736 57.0043 2.38837 57.1968 2.36387C57.3928 2.33937 57.5888 2.34287 57.7813 2.31837C57.8478 2.30787 57.8268 2.28337 57.9038 2.31137C57.9913 2.34287 58.0333 2.43386 58.0788 2.51086C58.1663 2.65086 58.2223 2.67187 58.3553 2.74887C58.4428 2.80137 58.4848 2.87487 58.5618 2.94137C58.6668 3.03587 58.7578 2.98686 58.8663 3.03936C58.9538 3.08136 59.0168 3.25987 59.0903 3.33336C59.2128 3.45587 59.3668 3.53986 59.5103 3.62036C59.5873 3.66236 59.6888 3.72886 59.7728 3.74986C59.8603 3.77436 59.9058 3.73237 59.9793 3.74287C60.0633 3.75687 60.1123 3.78136 60.1683 3.84436C60.2173 3.90036 60.2348 3.98087 60.2698 4.04387C60.3713 4.21537 60.4483 4.23637 60.6093 4.31687C60.7038 4.36237 60.8088 4.41137 60.8683 4.50237C60.9068 4.56187 60.9208 4.62137 60.9348 4.68787C60.9593 4.84537 60.9173 4.91187 61.1308 5.03087C61.1973 5.06937 61.2813 5.06937 61.3513 5.09737C61.3793 5.11137 61.3898 5.06937 61.4283 5.10087C61.4773 5.13937 61.5053 5.23737 61.5158 5.30387C61.5298 5.39837 61.4878 5.48586 61.4913 5.57686C61.5053 5.99686 61.7888 5.83937 61.9533 6.02487C62.0583 6.14387 62.0338 6.33636 62.0233 6.48687C62.0023 6.86836 61.9813 7.15536 62.1458 7.51586C62.2473 7.74336 62.2683 7.99886 62.2158 8.24386C62.1633 8.48536 62.1458 8.67786 62.1528 8.92636C62.1563 9.05586 62.1458 9.17486 62.1108 9.29736C62.0513 9.48636 61.9358 9.78037 61.7783 10.0149C61.7783 10.1024 61.7853 10.1689 61.8028 10.2214C62.0058 10.7744 62.9718 11.7544 61.7573 12.8114C60.3188 14.0084 61.0188 14.7294 60.8193 15.6499C60.8718 15.9089 60.9348 16.1609 60.9943 16.4164C61.9043 18.1594 62.8038 20.7844 63.4758 23.1889C65.1943 24.2774 67.3083 24.7114 69.3103 24.4139C72.0998 23.9974 74.7108 22.3209 76.3208 19.9164C79.9713 14.4634 76.1563 11.7964 76.6218 11.7054C76.7968 11.6704 76.9788 11.7264 77.1503 11.7929C81.0563 13.3329 80.0448 18.6844 78.3053 21.5579C75.9113 25.5199 71.3788 27.9664 66.8883 27.7634C68.3688 28.5124 70.0383 28.8659 71.6833 28.7784C74.7703 28.6104 77.7873 27.0459 79.7718 24.5784C84.2763 18.9889 80.3598 15.6849 80.8778 15.6324C81.0738 15.6149 81.2663 15.6919 81.4448 15.7829C85.5678 17.8654 83.9543 23.6159 81.7843 26.5769L81.7878 26.5979Z" fill="#ED1F24"/>
</svg>
