<svg width="22" height="22" viewBox="0 0 22 22" fill="none" xmlns="http://www.w3.org/2000/svg">
<g clip-path="url(#clip0_36441_899)">
<path d="M10.9616 22.0071L10.3226 21.4594C9.44171 20.7218 1.75 14.079 1.75 9.2199C1.75 4.13248 5.87418 0.00830078 10.9616 0.00830078C16.049 0.00830078 20.1732 4.13248 20.1732 9.2199C20.1732 14.079 12.4815 20.7219 11.6042 21.4631L10.9616 22.0071ZM10.9616 2.00012C6.97612 2.00463 3.74637 5.23438 3.74186 9.21986C3.74186 12.2724 8.47409 17.1489 10.9616 19.3808C13.4491 17.148 18.1813 12.2687 18.1813 9.21986C18.1768 5.23438 14.9471 2.00467 10.9616 2.00012Z" fill="#ED1F24"/>
<path d="M10.9615 12.8712C8.94485 12.8712 7.31006 11.2364 7.31006 9.21976C7.31006 7.20315 8.94485 5.56836 10.9615 5.56836C12.9781 5.56836 14.6129 7.20315 14.6129 9.21976C14.6129 11.2364 12.9781 12.8712 10.9615 12.8712ZM10.9615 7.39402C9.95315 7.39402 9.13576 8.21141 9.13576 9.21971C9.13576 10.228 9.95315 11.0454 10.9615 11.0454C11.9698 11.0454 12.7872 10.228 12.7872 9.21971C12.7872 8.21141 11.9698 7.39402 10.9615 7.39402Z" fill="#ED1F24"/>
</g>
<defs>
<clipPath id="clip0_36441_899">
<rect width="22" height="22" fill="white"/>
</clipPath>
</defs>
</svg>
