<svg width="24" height="24" viewBox="0 0 24 24" fill="none" xmlns="http://www.w3.org/2000/svg">
<path d="M23.339 1.65997H19.987L19.795 1.95597L16.992 6.27597L14.476 1.98197L14.288 1.65997H9.701L9.513 1.98197L6.998 6.27997L4.19 1.95597L3.998 1.65997H0V18.661H3.783V8.19297L5.725 11.324L5.917 11.633H7.946L8.138 11.332L10.271 7.96697V16.382H8.806L9.318 17.335L11.429 21.274L12 22.34L12.571 21.274L14.682 17.335L15.194 16.382H13.729V7.96697L15.862 11.332L16.054 11.633H18.083L18.275 11.324L20.217 8.19297V18.663H24V1.65997H23.352H23.339ZM23.339 18.013H20.852V5.91997L17.712 10.983H16.4L13.07 5.73197V17.032H14.101L11.99 20.971L9.879 17.032H10.91V5.73197L7.58 10.983H6.268L3.128 5.91997V18.015H0.648V2.30897H3.65L7.024 7.51097L10.072 2.30897H13.916L16.963 7.51097L20.337 2.30897H23.339V18.013Z" fill="white"/>
</svg>
