<svg width="24" height="21" viewBox="0 0 24 21" fill="none" xmlns="http://www.w3.org/2000/svg">
<path d="M23.339 0H19.987L19.795 0.296L16.992 4.616L14.476 0.322L14.288 0H9.701L9.513 0.322L6.998 4.62L4.19 0.296L3.998 0H0V17.001H3.783V6.533L5.725 9.664L5.917 9.973H7.946L8.138 9.672L10.271 6.307V14.722H8.806L9.318 15.675L11.429 19.614L12 20.68L12.571 19.614L14.682 15.675L15.194 14.722H13.729V6.307L15.862 9.672L16.054 9.973H18.083L18.275 9.664L20.217 6.533V17.003H24V0H23.352H23.339ZM23.339 16.353H20.852V4.26L17.712 9.323H16.4L13.07 4.072V15.372H14.101L11.99 19.311L9.879 15.372H10.91V4.072L7.58 9.323H6.268L3.128 4.26V16.355H0.648V0.649H3.65L7.024 5.851L10.072 0.649H13.916L16.963 5.851L20.337 0.649H23.339V16.353Z" fill="#ED1F24"/>
</svg>
