<svg width="48" height="48" viewBox="0 0 48 48" fill="none" xmlns="http://www.w3.org/2000/svg">
<g clip-path="url(#clip0_30003_9439)">
<path d="M41 10C43.758 10 46 7.756 46 5C46 2.244 43.758 0 41 0C38.242 0 36 2.244 36 5C36 7.756 38.242 10 41 10ZM41 2C42.654 2 44 3.346 44 5C44 6.654 42.654 8 41 8C39.346 8 38 6.654 38 5C38 3.346 39.346 2 41 2ZM20 5C20 4.448 20.448 4 21 4H27.9L25.916 2.244C25.504 1.874 25.47 1.244 25.84 0.832C26.212 0.42 26.842 0.388 27.252 0.756L30.354 3.542C31.166 4.316 31.17 5.696 30.364 6.474L27.25 9.248C26.836 9.614 26.206 9.58 25.836 9.166C25.468 8.754 25.506 8.122 25.918 7.754L27.886 6.002H21C20.448 6.002 20 5.552 20 5ZM18.922 15C19.01 14.478 19.152 13.918 19.56 13.548L22.67 10.756C23.078 10.386 23.712 10.42 24.082 10.832C24.452 11.244 24.416 11.874 24.006 12.244L22.05 14H28.998C29.55 14 29.998 14.448 29.998 15C29.998 15.552 29.55 16 28.998 16H22.008L24.002 17.752C24.414 18.12 24.452 18.752 24.084 19.164C23.716 19.578 23.082 19.612 22.672 19.246L19.57 16.484C19.156 16.094 18.99 15.544 18.92 15H18.922ZM34.064 16.65C35.106 13.868 37.892 12 41 12C44.108 12 46.894 13.868 47.936 16.65C48.132 17.166 47.868 17.742 47.352 17.938C47.234 17.98 47.118 18.002 47 18.002C46.596 18.002 46.214 17.754 46.064 17.352C45.312 15.348 43.276 14.002 41 14.002C38.724 14.002 36.688 15.348 35.936 17.352C35.74 17.87 35.168 18.13 34.648 17.938C34.132 17.744 33.868 17.168 34.064 16.65ZM5 18H11C13.756 18 16 15.756 16 13V7C16 4.244 13.756 2 11 2H5C2.244 2 0 4.244 0 7V13C0 15.756 2.244 18 5 18ZM2 7C2 5.346 3.346 4 5 4H11C12.654 4 14 5.346 14 7V13C14 14.654 12.654 16 11 16H5C3.346 16 2 14.654 2 13V7ZM5 7C5 6.448 5.448 6 6 6H10C10.552 6 11 6.448 11 7C11 7.552 10.552 8 10 8H6C5.448 8 5 7.552 5 7ZM46.362 23.31C48.386 25.154 48.55 28.318 46.728 30.362L30.922 47.794C30.55 48.204 29.918 48.232 29.51 47.864C29.102 47.492 29.07 46.86 29.442 46.45L45.242 29.024C46.332 27.8 46.234 25.898 45.016 24.788C43.84 23.674 41.814 23.762 40.748 24.988C40.748 24.988 31.734 34.89 31.73 34.894C31.12 36.77 29.498 38.226 27.466 38.516L15.12 39.994C14.556 40.068 14.074 39.668 14.008 39.12C13.942 38.572 14.334 38.074 14.882 38.008L27.204 36.534C28.788 36.308 30 34.91 30 33.286C30 31.476 28.526 30.002 26.714 30.002H7C4.244 30.002 2 32.246 2 35.002V47.002C2 47.554 1.552 48.002 1 48.002C0.448 48.002 0 47.554 0 47.002V35.002C0 31.142 3.14 28.002 7 28.002H26.714C29.134 28.002 31.156 29.646 31.782 31.868L39.266 23.644C41.042 21.606 44.398 21.462 46.362 23.312V23.31Z" fill="#ED1F24"/>
</g>
<defs>
<clipPath id="clip0_30003_9439">
<rect width="48" height="48" fill="white"/>
</clipPath>
</defs>
</svg>
